<mxfile host="Electron" agent="Mozilla/5.0 (X11; Linux x86_64) AppleWebKit/537.36 (KHTML, like Gecko) draw.io/27.0.5 Chrome/134.0.6998.205 Electron/35.4.0 Safari/537.36" version="27.0.5">
  <diagram name="Page-1" id="-Zx_f2Hi8Hm7Y5VEa5eP">
    <mxGraphModel dx="1426" dy="842" grid="1" gridSize="10" guides="1" tooltips="1" connect="1" arrows="1" fold="1" page="1" pageScale="1" pageWidth="827" pageHeight="1169" math="0" shadow="0">
      <root>
        <mxCell id="0" />
        <mxCell id="1" parent="0" />
        <mxCell id="JP_pmJfxKnAfF1QIcgvQ-4" style="edgeStyle=orthogonalEdgeStyle;rounded=0;orthogonalLoop=1;jettySize=auto;html=1;exitX=0.07;exitY=0.4;exitDx=0;exitDy=0;exitPerimeter=0;entryX=0.5;entryY=1;entryDx=0;entryDy=0;" edge="1" parent="1" source="JP_pmJfxKnAfF1QIcgvQ-2" target="JP_pmJfxKnAfF1QIcgvQ-3">
          <mxGeometry relative="1" as="geometry">
            <Array as="points">
              <mxPoint x="210" y="430" />
            </Array>
          </mxGeometry>
        </mxCell>
        <mxCell id="JP_pmJfxKnAfF1QIcgvQ-7" style="edgeStyle=orthogonalEdgeStyle;rounded=0;orthogonalLoop=1;jettySize=auto;html=1;exitX=0.875;exitY=0.5;exitDx=0;exitDy=0;exitPerimeter=0;entryX=0;entryY=0.5;entryDx=0;entryDy=0;" edge="1" parent="1" source="JP_pmJfxKnAfF1QIcgvQ-2" target="JP_pmJfxKnAfF1QIcgvQ-6">
          <mxGeometry relative="1" as="geometry" />
        </mxCell>
        <mxCell id="JP_pmJfxKnAfF1QIcgvQ-2" value="&lt;font style=&quot;font-size: 14px;&quot;&gt;Original Circuit&lt;/font&gt;" style="ellipse;shape=cloud;whiteSpace=wrap;html=1;fillColor=#d5e8d4;strokeColor=#82b366;" vertex="1" parent="1">
          <mxGeometry x="250" y="390" width="160" height="100" as="geometry" />
        </mxCell>
        <mxCell id="JP_pmJfxKnAfF1QIcgvQ-3" value="&lt;font style=&quot;font-size: 14px;&quot;&gt;Gold&lt;/font&gt;" style="rounded=0;whiteSpace=wrap;html=1;fillColor=#ffe6cc;strokeColor=#d79b00;" vertex="1" parent="1">
          <mxGeometry x="150" y="160" width="120" height="60" as="geometry" />
        </mxCell>
        <mxCell id="JP_pmJfxKnAfF1QIcgvQ-5" value="&lt;font style=&quot;font-size: 14px;&quot;&gt;Gate&lt;/font&gt;" style="rounded=0;whiteSpace=wrap;html=1;fillColor=#f8cecc;strokeColor=#b85450;" vertex="1" parent="1">
          <mxGeometry x="400" y="160" width="120" height="60" as="geometry" />
        </mxCell>
        <mxCell id="JP_pmJfxKnAfF1QIcgvQ-11" style="edgeStyle=orthogonalEdgeStyle;rounded=0;orthogonalLoop=1;jettySize=auto;html=1;exitX=0.5;exitY=0;exitDx=0;exitDy=0;entryX=0.5;entryY=1;entryDx=0;entryDy=0;" edge="1" parent="1" source="JP_pmJfxKnAfF1QIcgvQ-6" target="JP_pmJfxKnAfF1QIcgvQ-9">
          <mxGeometry relative="1" as="geometry" />
        </mxCell>
        <mxCell id="JP_pmJfxKnAfF1QIcgvQ-6" value="&lt;font style=&quot;font-size: 14px;&quot;&gt;TaMaRa&lt;/font&gt;" style="rhombus;whiteSpace=wrap;html=1;fillColor=#dae8fc;strokeColor=#6c8ebf;" vertex="1" parent="1">
          <mxGeometry x="420" y="400" width="80" height="80" as="geometry" />
        </mxCell>
        <mxCell id="JP_pmJfxKnAfF1QIcgvQ-10" value="" style="edgeStyle=orthogonalEdgeStyle;rounded=0;orthogonalLoop=1;jettySize=auto;html=1;" edge="1" parent="1" source="JP_pmJfxKnAfF1QIcgvQ-9" target="JP_pmJfxKnAfF1QIcgvQ-5">
          <mxGeometry relative="1" as="geometry" />
        </mxCell>
        <mxCell id="JP_pmJfxKnAfF1QIcgvQ-9" value="&lt;font style=&quot;font-size: 14px;&quot;&gt;Fault&lt;/font&gt;&lt;div&gt;&lt;font style=&quot;font-size: 14px;&quot;&gt;Injection&lt;/font&gt;&lt;/div&gt;" style="rhombus;whiteSpace=wrap;html=1;fillColor=#fff2cc;strokeColor=#d6b656;" vertex="1" parent="1">
          <mxGeometry x="420" y="260" width="80" height="80" as="geometry" />
        </mxCell>
        <mxCell id="JP_pmJfxKnAfF1QIcgvQ-12" value="&lt;font style=&quot;font-size: 64px;&quot;&gt;=?&lt;/font&gt;" style="text;html=1;align=center;verticalAlign=middle;whiteSpace=wrap;rounded=0;" vertex="1" parent="1">
          <mxGeometry x="270" y="160" width="130" height="40" as="geometry" />
        </mxCell>
        <mxCell id="JP_pmJfxKnAfF1QIcgvQ-13" value="&lt;font style=&quot;font-size: 14px;&quot;&gt;SAT Equivalence Check&lt;/font&gt;" style="text;html=1;align=center;verticalAlign=middle;whiteSpace=wrap;rounded=0;" vertex="1" parent="1">
          <mxGeometry x="270" y="220" width="130" height="30" as="geometry" />
        </mxCell>
      </root>
    </mxGraphModel>
  </diagram>
</mxfile>
